<?xml version="1.0" standalone="no"?>
<!DOCTYPE svg PUBLIC "-//W3C//DTD SVG 20010904//EN"
 "http://www.w3.org/TR/2001/REC-SVG-20010904/DTD/svg10.dtd">
<svg version="1.0" xmlns="http://www.w3.org/2000/svg"
 width="916.000000pt" height="902.000000pt" viewBox="0 0 916.000000 902.000000"
 preserveAspectRatio="xMidYMid meet">
<metadata>
Created by potrace 1.16, written by Peter Selinger 2001-2019
</metadata>
<g transform="translate(0.000000,902.000000) scale(0.100000,-0.100000)"
fill="#000000" stroke="none">
<path d="M875 8731 l-440 -6 -6 -230 -7 -230 3 -3959 4 -3958 6 -6 6 -6 1389
-3 1390 -3 0 98 0 99 -1213 7 -1212 8 -81 -7 -81 -7 -6 1206 -5 1206 5 747 6
746 1836 -7 1836 -6 210 8 210 7 3 138 3 137 -101 0 -100 0 0 -38 0 -39 -267
-7 -267 -7 -1683 7 -1683 7 -2 276 -2 276 -2 1320 -3 1320 6 351 6 351 649 6
649 7 890 -7 889 -6 0 -134 0 -133 100 0 100 0 0 135 0 135 310 0 310 0 0
-945 0 -945 -310 0 -310 0 0 80 0 80 -100 0 -100 0 2 -177 3 -178 408 -3 407
-2 0 -390 0 -390 100 0 100 0 0 390 0 390 45 0 45 0 0 100 0 100 -45 0 -45 0
0 945 0 945 980 0 980 0 0 100 0 100 -1638 0 -1639 0 -1049 3 -1049 4 -440 -6z
M7720 8630 l0 -100 475 -2 476 -3 2 -941 2 -942 -385 -7 -385 -8 -1072 7
-1073 6 0 -99 0 -100 43 -3 42 -3 3 -412 2 -413 100 0 100 0 2 411 3 412 1309
-2 1309 -1 3 -3 3 -2 -6 -898 -6 -897 -1309 0 -1308 0 0 20 0 20 -100 0 -101
0 3 -117 3 -118 1410 -5 1410 -6 0 -2 0 -2 -1 -1942 -2 -1943 -156 -3 -156 -3
0 -99 0 -100 249 0 250 0 8 12 8 13 0 4175 1 4175 -4 13 -4 12 -574 0 -574 0
0 -100z M4703 533 l-443 -3 0 -99 0 -98 1530 0 1530 -1 0 97 0 98 -772 6 -773
7 -315 -2 -315 -3 -442 -2z"/>
</g>
</svg>
